<?xml version="1.0" encoding="UTF-8" standalone="no"?>
<svg
   xmlns:dc="http://purl.org/dc/elements/1.1/"
   xmlns:cc="http://creativecommons.org/ns#"
   xmlns:rdf="http://www.w3.org/1999/02/22-rdf-syntax-ns#"
   xmlns:svg="http://www.w3.org/2000/svg"
   xmlns="http://www.w3.org/2000/svg"
   viewBox="0 0 816 1056"
   height="1056"
   width="816"
   xml:space="preserve"
   id="svg2"
   version="1.1"><metadata
     id="metadata8"><rdf:RDF><cc:Work
         rdf:about=""><dc:format>image/svg+xml</dc:format><dc:type
           rdf:resource="http://purl.org/dc/dcmitype/StillImage" /></cc:Work></rdf:RDF></metadata><defs
     id="defs6"><clipPath
       id="clipPath18"
       clipPathUnits="userSpaceOnUse"><path
         id="path16"
         d="M 0,792 H 612 V 0 H 0 Z" /></clipPath></defs><g
     transform="matrix(1.3333333,0,0,-1.3333333,0,1056)"
     id="g10"><g
       id="g12"><g
         clip-path="url(#clipPath18)"
         id="g14"><g
           transform="translate(217.2979,551.3403)"
           id="g20"><path
             id="path22"
             style="fill:#201b1c;fill-opacity:1;fill-rule:nonzero;stroke:none"
             d="M 0,0 C 9.362,-0.425 18.724,-0.851 28.085,-1.276 22.468,-27.404 16.851,-53.532 11.234,-79.66 c 12.085,-0.51 24.17,-1.021 36.255,-1.531 6.128,-9.958 12.256,-19.915 18.384,-29.873 -29.873,-0.17 -59.745,-0.34 -89.618,-0.51 C -15.83,-74.383 -7.915,-37.191 0,0" /></g><g
           transform="translate(225.9785,593.9785)"
           id="g24"><path
             id="path26"
             style="fill:#b11d24;fill-opacity:1;fill-rule:nonzero;stroke:none"
             d="m 0,0 c -2.553,-10.723 -5.106,-21.447 -7.659,-32.17 32.425,-0.766 64.851,-1.532 97.276,-2.298 0.92,-0.691 8.653,-6.709 8.681,-16.851 0.022,-8.183 -4.981,-15.79 -12.766,-19.404 -19.83,-0.34 -39.659,-0.681 -59.489,-1.022 -2.128,-10.212 -4.255,-20.425 -6.383,-30.638 8.17,-0.17 16.34,-0.34 24.51,-0.511 11.234,-16.68 22.469,-33.361 33.703,-50.042 11.403,-0.17 22.808,-0.34 34.212,-0.511 -10.809,16.851 -21.616,33.702 -32.425,50.553 4.898,-0.115 16.367,0.297 27.574,7.66 12.337,8.105 16.838,19.692 19.405,26.298 11.656,30.004 -3.813,56.139 -5.107,58.213 -1.154,1.849 -2.553,3.319 -2.553,3.319 -3.852,4.046 -8.65,5.667 -12,6.383" /></g><g
           transform="translate(381.2129,592.7021)"
           id="g28"><path
             id="path30"
             style="fill:#201b1c;fill-opacity:1;fill-rule:nonzero;stroke:none"
             d="m 0,0 c -11.66,-50.468 -23.319,-100.936 -34.979,-151.404 25.362,-0.085 50.723,-0.171 76.085,-0.256 2.042,9.787 4.085,19.575 6.128,29.362 -15.064,0.256 -30.128,0.511 -45.192,0.766 9.192,40.085 18.384,80.17 27.575,120.256 C 19.744,-0.851 9.872,-0.426 0,0" /></g></g></g></g></svg>